<?xml version="1.0" encoding="UTF-8" standalone="no"?>
<svg
   xmlns:dc="http://purl.org/dc/elements/1.1/"
   xmlns:cc="http://creativecommons.org/ns#"
   xmlns:rdf="http://www.w3.org/1999/02/22-rdf-syntax-ns#"
   xmlns:svg="http://www.w3.org/2000/svg"
   xmlns="http://www.w3.org/2000/svg"
   version="1.1"
   id="svg4342"
   viewBox="0 0 298.55787 109.71993"
   height="30.965403mm"
   width="84.259666mm">
  <defs
     id="defs4344" />
  <metadata
     id="metadata4347">
    <rdf:RDF>
      <cc:Work
         rdf:about="">
        <dc:format>image/svg+xml</dc:format>
        <dc:type
           rdf:resource="http://purl.org/dc/dcmitype/StillImage" />
        <dc:title></dc:title>
      </cc:Work>
    </rdf:RDF>
  </metadata>
  <g
     transform="translate(-163.5782,-582.91297)"
     id="layer1">
    <g
       transform="matrix(2.1112175,0,0,2.1112175,-181.77096,-769.66582)"
       id="g4918">
      <path
         d="m 231.87196,653.18291 c -5.71,-6.95251 -16.895,-12.51998 -29.38377,-12.51998 -7.84753,0 -15.18007,2.20001 -21.41755,6.0125 l 2.6463,3.66752 c 5.48996,-3.28499 11.90997,-5.17624 18.77125,-5.17624 9.65751,0 18.44001,3.74123 23.15002,8.0162 l 6.23375,0"
         style="fill:#ed383c;fill-opacity:1;fill-rule:nonzero;stroke:none"
         id="path50" />
      <path
         d="m 249.83819,679.68293 c 4.82498,4.56123 13.75877,8.44627 23.60122,8.44627 7.11876,0 13.75756,-2.0375 19.37996,-5.5513 l 2.46628,3.76755 c -6.33125,3.97873 -13.81744,6.28746 -21.84624,6.28746 -12.65372,0 -23.97002,-5.71747 -29.75754,-12.94998 l 6.15632,0"
         style="fill:#ed383c;fill-opacity:1;fill-rule:nonzero;stroke:none"
         id="path52" />
      <path
         d="m 168.3944,661.20415 0,3.09631 5.28252,0 0,4.07747 -5.28252,0 0,7.27378 -4.8162,0 0,-18.52631 10.63999,0 0,4.07875 -5.82379,0"
         style="fill:#ed383c;fill-opacity:1;fill-rule:nonzero;stroke:none"
         id="path54" />
      <path
         d="m 180.8944,671.57296 5.77377,0 0,4.07875 -10.58997,0 0,-18.52631 4.8162,0 0,14.44756"
         style="fill:#ed383c;fill-opacity:1;fill-rule:nonzero;stroke:none"
         id="path56" />
      <path
         d="m 206.33446,666.04416 c 0,5.99503 -4.3013,10.22125 -10.24627,10.22125 -5.94749,0 -10.24628,-4.22622 -10.24628,-10.22125 0,-5.6012 4.91375,-9.53247 10.24628,-9.53247 5.3312,0 10.24627,3.93127 10.24627,9.53247 z m -15.48004,0.025 c 0,3.19374 2.35753,5.52872 5.23377,5.52872 2.87376,0 5.23247,-2.33498 5.23247,-5.52872 0,-2.55501 -2.35871,-4.88998 -5.23247,-4.88998 -2.87624,0 -5.23377,2.33497 -5.23377,4.88998"
         style="fill:#ed383c;fill-opacity:1;fill-rule:nonzero;stroke:none"
         id="path58" />
      <path
         d="m 213.65815,669.09165 0.0487,0 3.88252,-11.96625 3.83248,0 3.63625,11.96625 0.05,0 3.48876,-11.96625 5.01244,0 -5.92248,18.52631 -4.91371,0 -3.24379,-10.73753 -0.0488,0 -3.63625,10.73753 -4.88997,0 -5.5275,-18.52631 5.01251,0 3.21869,11.96625"
         style="fill:#ed383c;fill-opacity:1;fill-rule:nonzero;stroke:none"
         id="path60" />
      <path
         d="m 243.7832,661.89171 c -0.88501,-0.73753 -2.015,-1.22878 -3.19375,-1.22878 -0.885,0 -2.06375,0.51627 -2.06375,1.54876 0,1.08124 1.3025,1.49872 2.13745,1.76872 l 1.2288,0.3688 c 2.57995,0.76119 4.57,2.06368 4.57,5.06119 0,1.8438 -0.44258,3.73505 -1.91628,4.98749 -1.44996,1.2288 -3.39126,1.74507 -5.25871,1.74507 -2.33375,0 -4.62005,-0.78628 -6.5113,-2.1125 l 2.06375,-3.88252 c 1.20499,1.05621 2.62879,1.91627 4.27505,1.91627 1.13121,0 2.33498,-0.56502 2.33498,-1.86752 0,-1.35124 -1.89254,-1.81876 -2.92374,-2.11243 -3.02254,-0.86006 -5.0138,-1.64756 -5.0138,-5.23383 0,-3.75878 2.67875,-6.2162 6.38877,-6.2162 1.86753,0 4.15375,0.58997 5.80002,1.52373 l -1.91749,3.73375"
         style="fill:#ed383c;fill-opacity:1;fill-rule:nonzero;stroke:none"
         id="path62" />
      <path
         d="m 253.02194,661.20415 0,3.09631 5.42877,0 0,4.07747 -5.42877,0 0,3.19503 5.72502,0 0,4.07875 -10.54254,0 0,-18.52631 10.54254,0 0,4.07875 -5.72502,0"
         style="fill:#ed383c;fill-opacity:1;fill-rule:nonzero;stroke:none"
         id="path64" />
      <path
         d="m 276.65444,675.65171 -5.99503,0 -4.5462,-7.12631 -0.0487,0 0,7.12631 -4.81629,0 0,-18.52631 7.19881,0 c 3.66248,0 6.43875,1.74378 6.43875,5.7 0,2.5563 -1.42503,4.76754 -4.05503,5.23384 l 5.82374,7.59247 z m -10.58998,-10.22126 0.46745,0 c 1.57128,0 3.3413,-0.29502 3.3413,-2.31002 0,-2.015 -1.77002,-2.31003 -3.3413,-2.31003 l -0.46745,0 0,4.62005"
         style="fill:#ed383c;fill-opacity:1;fill-rule:nonzero;stroke:none"
         id="path66" />
      <path
         d="m 283.98186,668.37793 4.49632,-11.25253 5.23498,0 -7.91245,18.52631 -3.73505,0 -7.78868,-18.52631 5.23246,0 4.47242,11.25253"
         style="fill:#ed383c;fill-opacity:1;fill-rule:nonzero;stroke:none"
         id="path68" />
      <path
         d="m 299.2669,661.20415 0,3.09631 5.43129,0 0,4.07747 -5.43129,0 0,3.19503 5.72633,0 0,4.07875 -10.54132,0 0,-18.52631 10.54132,0 0,4.07875 -5.72633,0"
         style="fill:#ed383c;fill-opacity:1;fill-rule:nonzero;stroke:none"
         id="path70" />
      <path
         d="m 297.17316,681.5104 c 0,-0.765 0.57755,-1.34247 1.31753,-1.34247 0.7325,0 1.30875,0.57747 1.30875,1.34247 0,0.7788 -0.57625,1.35254 -1.30875,1.35254 -0.73998,0 -1.31753,-0.57374 -1.31753,-1.35254 z m 1.31753,1.62133 c 0.88127,0 1.63376,-0.68383 1.63376,-1.62133 0,-0.92744 -0.75249,-1.61247 -1.63376,-1.61247 -0.88998,0 -1.64254,0.68503 -1.64254,1.61247 0,0.9375 0.75256,1.62133 1.64254,1.62133 z m -0.34249,-1.49255 0.32501,0 0.49248,0.80872 0.31616,0 -0.52994,-0.82124 c 0.27375,-0.035 0.48249,-0.17997 0.48249,-0.51376 0,-0.3675 -0.21744,-0.52994 -0.6575,-0.52994 l -0.71121,0 0,1.86494 0.28251,0 0,-0.80872 z m 0,-0.23872 0,-0.57877 0.38499,0 c 0.19622,0 0.40626,0.0438 0.40626,0.27375 0,0.28747 -0.21377,0.30502 -0.4538,0.30502 l -0.33745,0"
         style="fill:#ed383c;fill-opacity:1;fill-rule:nonzero;stroke:none"
         id="path72" />
    </g>
  </g>
</svg>
